<?xml version="1.0" encoding="utf-8"?>
<!-- Generator: Adobe Illustrator 23.0.4, SVG Export Plug-In . SVG Version: 6.00 Build 0)  -->
<svg version="1.1" id="Layer_1" xmlns="http://www.w3.org/2000/svg" xmlns:xlink="http://www.w3.org/1999/xlink" x="0px" y="0px"
	 viewBox="0 0 11.5 20" style="enable-background:new 0 0 11.5 20;" xml:space="preserve">
<style type="text/css">
	.st0{fill-rule:evenodd;clip-rule:evenodd;fill:#FFFFFF;}
</style>
<title>arrow_left_white</title>
<g>
	<g id="Layer_1-2">
		<path class="st0" d="M1.5,12.1L0.4,11c-0.6-0.6-0.6-1.5,0-2.1l0,0l1-1l0,0L7,2.3l1.8-1.9l0,0l0,0C9,0.2,9.2,0,9.5,0
			c0.3,0,0.5,0,0.8,0.1s0.5,0.2,0.7,0.4v0.1c0.2,0.2,0.4,0.4,0.4,0.7c0.1,0.2,0.1,0.5,0,0.7S11.2,2.5,11,2.6L3.6,10l7.4,7.4
			c0.2,0.2,0.3,0.4,0.4,0.6c0.1,0.2,0.1,0.5,0,0.7c-0.1,0.3-0.2,0.5-0.4,0.7l-0.1,0.1c-0.2,0.2-0.4,0.4-0.7,0.4C10,20,9.8,20,9.6,20
			c-0.2-0.1-0.5-0.2-0.6-0.4L1.5,12.1z"/>
	</g>
</g>
</svg>
