<?xml version="1.0" encoding="utf-8"?>
<!-- Generator: Adobe Illustrator 23.0.4, SVG Export Plug-In . SVG Version: 6.00 Build 0)  -->
<svg version="1.1" id="Layer_1" xmlns="http://www.w3.org/2000/svg" xmlns:xlink="http://www.w3.org/1999/xlink" x="0px" y="0px"
	 viewBox="0 0 11.5 20" style="enable-background:new 0 0 11.5 20;" xml:space="preserve">
<style type="text/css">
	.st0{fill-rule:evenodd;clip-rule:evenodd;}
</style>
<title>arrow_left_white</title>
<g>
	<g id="Layer_1-2">
		<path class="st0" d="M1.5,12.1l-1.1-1.1c-0.6-0.6-0.6-1.5,0-2.1c0,0,0,0,0,0l1-1l0,0l5.6-5.6l1.8-1.9l0,0l0,0
			c0.2-0.2,0.4-0.4,0.7-0.4C9.8,0,10,0,10.3,0.1c0.3,0.1,0.5,0.2,0.7,0.4v0.1c0.2,0.2,0.4,0.4,0.4,0.7c0.1,0.2,0.1,0.5,0,0.7
			c-0.1,0.2-0.2,0.5-0.4,0.6L3.6,10l7.4,7.4c0.2,0.2,0.3,0.4,0.4,0.6c0.1,0.2,0.1,0.5,0,0.7c-0.1,0.3-0.2,0.5-0.4,0.7l-0.1,0.1
			c-0.2,0.2-0.4,0.4-0.7,0.4C10,20,9.8,20,9.6,20c-0.2-0.1-0.5-0.2-0.6-0.4L1.5,12.1z"/>
	</g>
</g>
</svg>
